<svg xmlns="http://www.w3.org/2000/svg" width="1080" height="270" viewBox="0 0 1080 270"><defs><style>.a{fill:#f0e55d;}.b{fill:#00ae63;}.c{fill:#cfdd2f;}.d{fill:#333;}.e{fill:none;}.f{fill:#fff;}</style></defs><path class="a" d="M182.62,119.62c-2.42,8.46-9.37,10.17-15.45,3.8l-29.55-31c-6.07-6.37-9.06-18.5-6.63-27l12.92-45.07C146.34,11.92,155.52,5,164.32,5h35.17c8.8,0,14,6.92,11.59,15.38Z"/><path class="b" d="M151,168.58c-8.8,0-10.69-4.86-4.19-10.8l49.81-45.56c6.49-5.94,19-10.8,27.81-10.8h43.83c8.8,0,14,6.92,11.59,15.38l-10.44,36.4C267,161.66,257.8,168.58,249,168.58Z"/><path class="c" d="M106.64,150.38c2.42-8.46,9.37-10.17,15.45-3.8l29.55,31c6.07,6.37,9.06,18.5,6.63,27l-12.92,45.07c-2.43,8.46-11.61,15.38-20.41,15.38H89.77c-8.8,0-14-6.92-11.59-15.38Z"/><path class="b" d="M138.26,101.42c8.8,0,10.69,4.86,4.19,10.8L92.64,157.78c-6.49,5.94-19,10.8-27.81,10.8H21c-8.8,0-14-6.92-11.59-15.38l10.44-36.4c2.43-8.46,11.61-15.38,20.41-15.38Z"/><ellipse class="b" cx="502.3" cy="136.72" rx="14.5" ry="14"/><rect class="d" x="455.5" y="196.5" width="92" height="29" transform="translate(290.5 712.5) rotate(-90)"/><path class="d" d="M812,197c0-36.17-23.87-60-60-60s-60,23.83-60,60,23.69,59.81,59.59,60H756c17.44,0,32-5.56,42.43-15.37l-19.48-17c-5,5.72-12.5,8.91-23,8.91h-4c-19.47,0-28.71-11.07-30.62-29h90.25C811.87,202.06,812,199.57,812,197Zm-89.09-14.5c4.32-14.77,15.56-22,29.09-22h0c13.53,0,24.77,7.23,29.09,22Z"/><path class="d" d="M900.9,137h0c-36.08.05-59.9,23.86-59.9,60v60h29V197h0c0-24.56,13.61-36.5,31-36.5h14.5V137Z"/><path class="d" d="M1035.5,137v60.06c0,24.52-13.62,36.44-31,36.44h0c-17.39,0-31-11.93-31-36.5h0V137h-29v60.1h0c0,36.11,23.9,59.9,60,59.9s60-23.79,60-59.9h0V137Z"/><path class="d" d="M458,196.9C458,160.79,434.1,137,398,137h0a53.89,53.89,0,0,0-31,9.38V137H338v60h0v60h29V197h0c0-24.56,13.61-36.5,31-36.5h0c17.39,0,31,11.94,31,36.5h0v60h29V197h0v-.1Z"/><path class="e" d="M605,160.5h0c-17.39,0-31,11.94-31,36.5,0,22.3,9,36.5,31,36.5h0c22,0,31-14.2,31-36.5C636,172.44,622.39,160.5,605,160.5Z"/><path class="d" d="M605,137c-36.13,0-60,23.83-60,60s23.87,60,60,60a54,54,0,0,0,31-9.38V257h29V197C665,160.83,641.13,137,605,137Zm0,96.5h0c-22,0-31-14.2-31-36.5,0-24.56,13.61-36.5,31-36.5h0c17.39,0,31,11.94,31,36.5C636,219.3,627.05,233.5,605,233.5Z"/><path class="b" d="M357.66,88.76c0,1.26,0,5.21-5,5.21-4.62,0-5-3.28-5-5.21V55.08a5.83,5.83,0,0,1-4.12,2.18C340.35,57.26,338,54,338,51c0-2.18,1-3.61,2.6-5.8a75.75,75.75,0,0,0,12-25.36c.67-3,1.26-5.3,5-5.3.67,0,5.46.09,5.46,4.37,0,2.61-2.27,10.84-5.46,18.23Zm8.4-27.38c-1.35,0-5.13,0-5.13-4.79,0-4,2.69-4.79,5.13-4.79h18.56V45.33h-8.9c-6.72,0-9.66-2.52-9.66-9.74v-9c0-7.48,3.19-9.66,9.66-9.66H403.6c6.22,0,9.66,2,9.66,9.66v9c0,7.39-3.1,9.74-9.66,9.74h-9.15V51.8h18.39c1.35,0,5.13.08,5.13,4.79,0,4.28-3,4.79-5.13,4.79H398.4A76.29,76.29,0,0,0,411,75.74c6.63,5.38,6.88,5.54,6.88,7.48,0,3-2.77,5.88-5.46,5.88-1.68,0-3.27-.93-6.63-4.46a92.23,92.23,0,0,1-11.34-14.53V88.68c0,1.26,0,5.12-4.71,5.12-3.78,0-5.12-1.68-5.12-5.12V70.87c-5.71,7.89-15.79,18.31-19.91,18.31-2.6,0-5-2.94-5-5.54,0-2.44,1.85-3.7,3.28-4.71,5.12-3.53,11.34-7.81,18-17.55Zm36.87-32.85a2.53,2.53,0,0,0-2.85-2.85H379.16c-2,0-2.86,1-2.86,2.85v5.29c0,1.94.93,2.86,2.86,2.86h20.92c1.93,0,2.85-.92,2.85-2.86Z"/><path class="b" d="M480.13,41.13c-1.26,0-3.61,0-4.29-2.77-4,2.77-5.37,3-6.3,3-1.84,0-4.11-1.51-5-4.62A73.36,73.36,0,0,0,462,44.32c0,.59.17.93.93,2,4.2,6,5.46,14.2,5.46,19C468.37,77,461.4,77,458,77c-4.7,0-5.71-2.27-5.71-5.71,0-3.19,1.09-4.29,2.77-4.45s3.7-.26,3.7-4.62a27.09,27.09,0,0,0-3.28-12.52c-1.85-3.44-2-3.78-2-4.79,0-1.17.5-2.52,2.1-7.14.67-1.93,2.94-8.9,2.94-10.16,0-1.43-1.6-1.43-1.94-1.43h-2.35c-1.17,0-2,.5-2,1.93V88.76c0,3.61-1.52,5.12-5,5.12-4.62,0-4.62-3.86-4.62-5.12v-63c0-7.9,1.84-9.41,9.49-9.41h6.38c6.05,0,9.24.84,9.24,7.31a27.46,27.46,0,0,1-1.17,7.73c.42-.34,3.61-2.1,5.54-3.11,5.38-2.94,9.49-7.31,12.77-10.75a9,9,0,0,1,7.39-3.45c4.45,0,6.05,1.77,7.48,3.28,5,5.54,7.72,8.32,17,13.52,1.26.76,3.11,1.77,3.11,4.46,0,3-2.18,5.88-5,5.88-1.09,0-2.18-.26-6.63-3.28-.51,3.11-2.86,3.19-4.37,3.19h-6.81v4.71h9.33c7.73,0,9.41,1.68,9.41,9.4v6c0,7.81-1.68,9.41-9.41,9.41h-6.3c4.45,7.64,10.75,10.41,16.29,12.76,1.52.59,3.36,1.43,3.28,4.46,0,2.85-1.93,5.62-4.87,5.62-3.11,0-15-5-22.26-17.72-6.22,11.93-18.82,17.81-22.6,17.81-2.6,0-4.95-2.44-4.95-5.71s2.26-4.12,3.78-4.71c7-2.52,12.09-5.12,15.87-12.51H478.2c-7.82,0-9.5-1.77-9.5-9.41v-6c0-7.72,1.77-9.4,9.5-9.4h9.07V41.13Zm7.14,13.19h-7.65a1.78,1.78,0,0,0-2,2v3.78a1.81,1.81,0,0,0,2,2h7.31a45.25,45.25,0,0,0,.34-6.3Zm13.61-21.76a72,72,0,0,1-7.31-7.72c-.51-.51-.76-.76-1.26-.76s-.67.08-1.43,1.09a54.7,54.7,0,0,1-7.39,7.39Zm-4,23.27a46,46,0,0,1-.33,6.3h8.15a1.78,1.78,0,0,0,2-2V56.34a1.78,1.78,0,0,0-2-2h-7.82Z"/><path class="b" d="M563.29,88.93c0,1.76-.25,5.12-4.54,5.12-3.53,0-5.21-1.26-5.21-5.12V61.21c-2.6,7.22-3.52,9.07-4.78,10.92a4.33,4.33,0,0,1-3.87,2.27c-2.94,0-5-3.11-5-5.88,0-2,.34-2.52,4.29-8.4a75.35,75.35,0,0,0,9-20.58h-7.56c-1.34,0-4.78,0-4.78-4.79,0-4.54,2.85-5,4.78-5h8V19.12c0-1.34,0-5.12,4.62-5.12,3.28,0,5.13,1.18,5.13,5.12V29.79H569c1.34,0,4.79.09,4.79,4.87,0,4.46-2.86,4.88-4.79,4.88h-5.71v2.6a50.87,50.87,0,0,0,8.15,14.78c3.36,4.2,3.61,4.46,3.61,6a5.11,5.11,0,0,1-5,4.79,3.37,3.37,0,0,1-2.69-1.35c-1.09-1.26-2-2.85-4.11-6.89ZM617,82.21c0,7.64-3.44,9.74-9.74,9.74H585.8c-6.22,0-9.66-2.1-9.66-9.74V26.6c0-7.56,3.36-9.74,9.66-9.74h21.42c6.3,0,9.74,2.1,9.74,9.74ZM607,38.7V29.54A2.62,2.62,0,0,0,604,26.6H589c-2.1,0-2.94,1.09-2.94,2.94V38.7Zm0,9.15H586.05V60H607Zm0,21.25H586.05V79.27c0,2,1,2.94,2.94,2.94h15c1.85,0,2.94-.84,2.94-2.94Z"/><path class="b" d="M645.52,38.11c-1.59,0-4.45-.09-4.45-4.45,0-3.95,2.19-4.54,4.45-4.54h23c1.51,0,4.45.08,4.45,4.37s-2.43,4.62-4.45,4.62Zm2.27-12.52c-1.34,0-4.53,0-4.53-4.37,0-4.2,2.85-4.45,4.53-4.45h18.06c1.26,0,4.45,0,4.45,4.37s-2.85,4.45-4.45,4.45Zm0,24.78c-1.34,0-4.53,0-4.53-4.37,0-4.11,2.6-4.45,4.53-4.45H666c1.26,0,4.45,0,4.45,4.37,0,4.2-2.77,4.45-4.45,4.45Zm0,12.35c-1.26,0-4.53,0-4.53-4.37s2.94-4.45,4.53-4.45H666c1.18,0,4.45,0,4.45,4.37s-3.11,4.45-4.7,4.45Zm43-8.06c0-1.85.25-5.13,4.45-5.13,3.45,0,5.21,1.09,5.21,5.13V60c0,10.17,7.73,17.89,12.35,20.41,1.09.59,6.63,3.62,7,4A4.18,4.18,0,0,1,721,87.5c0,2.69-2.1,5.8-5.13,5.8-2.77,0-9.32-3.87-13.69-8.49a34.21,34.21,0,0,1-6.55-11.09c-5.13,13.36-17.05,19.74-20.67,19.74-3,0-5.12-2.26-5-5.88-.75,4.62-4.45,4.79-8.48,4.79h-9c-7.14,0-8.73-1.51-8.73-8.82V74.82c0-7.06,1.51-8.74,8.82-8.74h8.9c7.22,0,8.74,1.6,8.74,8.74v8.73c0,.84,0,1.93-.09,3,.25-1.26.76-1.94,2.77-2.86,5.63-2.69,11.26-5.29,15.12-12.35a26.55,26.55,0,0,0,2.86-11Zm-29.23,21.5c0-1.18-.51-2-1.93-2H655.1a1.77,1.77,0,0,0-2,2V81.7a1.78,1.78,0,0,0,2,2h4.54a1.76,1.76,0,0,0,1.93-2Zm29.23-57c0-2.94,1.26-4.87,4.45-4.87s5.21.84,5.21,5V22.4c0,8.74,6,15,11.76,19.07,1,.75,6.22,3.36,7.14,4a3.49,3.49,0,0,1,1.26,2.94c0,3.11-2,6.3-5,6.3-2.6,0-7.56-4-10.41-6.47a30.36,30.36,0,0,1-9.58-13,32.84,32.84,0,0,1-11.42,15.12c-2.94,2.19-6.22,4.45-8.32,4.45-2.43,0-4.87-3-4.87-6.13,0-2.43.76-2.85,5.63-5.29,5.88-2.94,14.11-10.58,14.11-21.17Zm-8.32,2c.93,2.1,3.11,7.64,3.11,9.91,0,2.61-2.18,4.71-5.29,4.71s-3.61-1.85-5-6.3c-2.1-6.47-2.35-7.23-2.35-8,0-2.44,2.52-4.2,5-4.2S681.31,18.62,682.48,21.14Zm.09,38.39c1.09,2.18,3.53,7.47,3.53,9.66,0,3.53-3.7,4.37-5,4.37-2.94,0-3.7-1.77-4.62-4.29-.42-1.09-2.6-6-3-7A7,7,0,0,1,673,60c0-3.36,4-4.11,4.45-4.11C680.3,55.5,681.39,57.09,682.57,59.53Zm32.84,9.66c-1.34,2.52-2.52,4.2-4.87,4.2-1.85,0-5.12-1.51-5.12-4.54,0-.84.08-1.34,1.68-4.37.67-1.17,3.19-6.88,4-7.81a4.34,4.34,0,0,1,3-1.09c2.52,0,5,1.6,5,4S717.18,65.91,715.41,69.19Zm-.08-37.72c-1.43,2.77-2.35,4-4.71,4-2.52,0-5-1.93-5-4.37,0-1.17.26-1.59,2.19-5.54.42-.84,2.18-4.79,2.6-5.55a4,4,0,0,1,3.87-2.52c2.94,0,5.12,2.19,5.12,4.12C719.36,23.24,719.36,23.83,715.33,31.47Z"/><path class="b" d="M1050.86,80.49C1049,86.82,1042.08,92,1035.48,92H754.09c-6.61,0-10.48-5.18-8.62-11.51l15.84-54C763.17,20.18,770.09,15,776.69,15h281.4c6.6,0,10.47,5.18,8.61,11.51Z"/><path class="f" d="M783.29,75.58V66.93h47.93v8.65Zm4.38-33V34h38.85v8.6Z"/><path class="f" d="M871.7,62.4c-3.9,8.8-11.42,13.66-20,15.53V69.49c9-3.36,14.14-9.92,14.14-22.36V44.62h8.59v3.05a45.29,45.29,0,0,1-.32,5.6c6.78-2,10.36-6.83,11.58-13.08H850.14V31.87h45.68v1.76C895.5,52.52,883.44,60.37,871.7,62.4Z"/><path class="f" d="M914.82,75.47V67.25H933.5V41.69H917.86V33.47h41.47v8.22H942.68V67.25h19.75v8.22Z"/><path class="f" d="M981.43,78.83V68.69c3.89-3.63,6.88-8.8,6.88-22.36V31.39H997V45.74C997,65.92,990.66,73.76,981.43,78.83Zm20.92-1.12V31.33h8.7V66.51c7.15-2.3,10.19-11.64,10.67-20.61h8.7C1029.78,65.38,1020.76,76.75,1002.35,77.71Z"/></svg>